<?xml version="1.0" encoding="utf-8"?>
<!-- Generator: Adobe Illustrator 21.0.0, SVG Export Plug-In . SVG Version: 6.00 Build 0)  -->
<svg version="1.2" baseProfile="tiny" id="Layer_1" xmlns="http://www.w3.org/2000/svg" xmlns:xlink="http://www.w3.org/1999/xlink"
	 x="0px" y="0px" width="188px" height="62.701px" viewBox="0 0 188 62.701" overflow="auto" xml:space="preserve">
<path fill="#CC3300" d="M93.349,22.999L76.431,14.46h-0.002c-1.237,0.163-2.643,0.381-3.785,0.582l11.511,5.102
	c-0.325,0.142-0.457,0.189-0.734,0.31l-12.256-5.138c-2.34,0.439-4.699,0.982-6.689,1.521l11.005,3.635
	c-0.513,0.242-0.649,0.306-1.178,0.559l-11.899-3.643c-3.536,1.007-7.162,2.221-11.972,4.232l0.004-0.001l22.399,4
	c-0.632,0.342-1.012,0.562-1.646,0.915l-23.839-3.572c-5.683,2.476-12.27,6.271-17.519,9.775h0.004l23.459,0.005l0.005-0.004
	c-1.071,0.697-1.981,1.275-3.259,2.192l0.022-0.021L25.519,35.75l0.004,0.003c-4.509,3.251-9.108,7.152-11.781,9.56
	C11.15,47.649,3.5,55.576,0,62.701l28.624-7.613l0.002,0.003c-1.285,1.942-2.332,3.96-2.952,5.761l31.087-10.067
	c-0.326-7.412,6.715-14.028,11.498-18.045l3.945-0.003c-6.118,5.295-8.946,11.236-8.149,15.709l9.73-3.151
	C71.398,39.156,77.802,28.23,93.349,22.999z M86.896,21.915l1.901,0.801c-3.187,1.303-6.04,2.722-8.575,4.21l-2.615-0.437
	C79.942,25.088,83.372,23.387,86.896,21.915z"/>
<g>
	<path d="M124.531,23.01l-7.527-10.947h-1.217v8.908l2.893,1.184v0.855h-9.072v-0.855l2.926-1.184v-18.9l-2.926-1.217V0h9.302
		c2.728,0,3.846,0.297,5.096,1.283c1.249,1.019,1.939,2.498,1.939,4.273c0,3.057-2.104,5.358-5.49,5.917l6.936,9.434l2.663,1.249
		v0.855H124.531z M118.154,1.382h-2.367v9.302h2.302c2.53,0,4.273-2.005,4.273-4.832C122.362,3.156,120.915,1.382,118.154,1.382z"/>
	<path d="M147.899,20.807c-1.971,1.513-4.372,2.203-7.757,2.203h-9.763v-0.855l2.926-1.216V2.072l-2.926-1.217V0h10.289
		c4.405,0,6.739,0.823,8.777,3.123c1.84,2.038,2.728,4.668,2.728,7.856C152.174,15.154,150.661,18.638,147.899,20.807z
		 M146.815,4.471c-1.511-2.07-3.451-2.926-6.541-2.926h-3.714v19.921h3.287c2.925,0,4.569-0.625,6.212-2.367
		c1.874-1.939,2.695-4.372,2.695-7.856C148.754,8.48,148.097,6.246,146.815,4.471z"/>
	<path d="M185.305,2.072l-7.824,21.267h-1.414l-5.883-17.98l-6.345,17.98h-1.38L155.49,2.072l-2.663-1.217V0h8.744v0.855
		l-2.629,1.217l4.011,12.984c0.328,1.053,0.623,2.104,0.887,3.222L170.184,0h1.545l4.898,15.154
		c0.493,1.578,0.658,2.203,0.855,3.287l5.457-16.37l-2.663-1.217V0H188v0.855L185.305,2.072z"/>
</g>
</svg>
